<?xml version="1.0" standalone="no"?>
<!DOCTYPE svg PUBLIC "-//W3C//DTD SVG 20010904//EN"
 "http://www.w3.org/TR/2001/REC-SVG-20010904/DTD/svg10.dtd">
<svg version="1.0" xmlns="http://www.w3.org/2000/svg"
 width="480.000000pt" height="480.000000pt" viewBox="0 0 480.000000 480.000000"
 preserveAspectRatio="xMidYMid meet">
<metadata>
Created by potrace 1.11, written by Peter Selinger 2001-2013
</metadata>
<g transform="translate(0.000000,480.000000) scale(0.100000,-0.100000)"
fill="#000000" stroke="none">
<path d="M2098 4785 c-404 -68 -736 -373 -855 -785 l-27 -95 -4 -905 -3 -906
24 -44 c13 -25 43 -58 66 -75 l43 -30 311 -5 c213 -3 312 -8 314 -16 2 -7
-143 -47 -388 -108 -440 -108 -489 -127 -579 -222 -91 -96 -99 -121 -220 -733
-61 -304 -110 -571 -110 -594 0 -106 50 -191 137 -234 l58 -28 437 -3 438 -3
25 25 c31 31 32 66 2 94 -21 20 -35 22 -167 24 l-145 3 -3 344 c-2 303 -4 347
-19 363 -22 25 -75 23 -99 -3 -18 -20 -19 -43 -22 -365 l-3 -344 -188 0 c-214
0 -241 3 -275 35 -49 45 -47 61 64 620 57 286 111 548 122 582 23 76 88 152
161 187 29 14 153 50 276 81 182 46 226 54 236 43 7 -7 110 -129 229 -270 120
-142 235 -272 257 -289 114 -90 277 -95 402 -13 26 17 459 509 512 582 6 8
455 -112 501 -134 77 -36 139 -110 164 -193 37 -127 222 -1084 217 -1124 -7
-54 -31 -84 -74 -96 -21 -6 -125 -11 -230 -11 l-193 0 0 336 c0 386 -1 393
-77 394 -62 0 -63 -5 -63 -387 l0 -343 -665 0 c-652 0 -665 0 -685 -20 -26
-26 -26 -74 0 -100 20 -20 33 -20 958 -20 1018 0 991 -1 1072 55 20 14 50 49
65 77 51 93 49 110 -74 728 -126 630 -133 651 -236 749 -88 84 -155 108 -578
212 -224 55 -376 97 -374 103 2 7 110 13 313 16 332 5 340 7 390 62 56 61 54
17 55 908 1 865 2 837 -44 861 -29 16 -74 -7 -86 -43 -6 -17 -11 -74 -11 -126
0 -86 -2 -93 -17 -87 -10 4 -37 15 -61 23 -30 10 -47 23 -53 41 -6 14 -24 41
-41 58 -31 32 -50 41 -136 63 -52 13 -103 57 -147 126 -27 42 -42 55 -74 65
-56 17 -90 4 -136 -49 -97 -114 -255 -261 -339 -316 -215 -142 -388 -194 -677
-205 -172 -6 -178 -7 -217 -35 -24 -17 -50 -47 -63 -73 -20 -42 -21 -55 -16
-221 5 -202 21 -279 85 -416 78 -166 198 -306 340 -396 60 -38 72 -49 72 -72
l0 -28 -290 0 c-278 0 -291 1 -310 20 -21 21 -21 27 -18 903 4 980 0 914 73
1088 89 212 266 393 479 489 251 114 566 102 861 -33 83 -38 95 -41 160 -37
157 8 188 5 248 -23 78 -36 131 -79 183 -149 56 -76 85 -154 94 -252 6 -69 11
-83 34 -103 34 -29 48 -29 83 1 26 23 28 29 26 96 -9 334 -334 627 -633 572
-53 -10 -58 -8 -157 34 -231 98 -491 135 -705 99z m841 -1119 c49 -52 98 -82
167 -102 33 -9 65 -21 72 -27 11 -8 13 -81 9 -371 -4 -398 -6 -414 -72 -551
-202 -416 -739 -573 -1124 -328 -199 126 -321 306 -367 541 -20 104 -19 315 2
336 12 13 40 16 137 16 224 0 408 43 612 145 162 80 274 164 407 304 85 89
105 106 112 92 5 -9 25 -33 45 -55z m441 -281 c50 -26 70 -61 70 -124 0 -34
-6 -65 -15 -78 -16 -23 -75 -63 -94 -63 -8 0 -11 42 -11 140 0 91 4 140 10
140 6 0 24 -7 40 -15z m70 -822 c0 -401 -2 -448 -17 -465 -15 -17 -38 -18
-310 -18 l-293 0 0 23 c0 19 18 35 80 76 150 97 283 257 350 418 39 93 70 229
70 309 l0 61 53 21 c28 11 55 20 60 21 4 0 7 -200 7 -446z m-1244 -513 c139
-31 322 -24 462 16 22 6 22 6 22 -109 0 -151 4 -157 149 -192 57 -13 106 -26
108 -28 2 -3 -22 -34 -53 -71 l-56 -66 -437 0 -437 0 -45 53 c-24 28 -50 59
-57 68 -11 15 -1 19 98 44 147 37 150 40 150 191 0 63 1 114 3 114 2 0 43 -9
93 -20z m448 -667 c-135 -158 -172 -185 -254 -185 -82 0 -119 27 -254 185
l-58 67 312 0 312 0 -58 -67z"/>
</g>
</svg>
